# xmcd
#
# Track frame offsets: 
#        150
#        15582
#        31845
#        64437
#        100740
#
# Disc length: 1568 seconds
#
# Revision: 0
# Processed by: cddbd v1.5.2PL0 Copyright (c) Steve Scherf et al.
# Submitted via: ExactAudioCopy v0.95b4
#
DISCID=36061e05
DTITLE=Seven - Spaceman Came Travelling
DYEAR=1900
DGENRE=
TTITLE0=Video Version
TTITLE1=Radio Version
TTITLE2=Groove Coverage Mix
TTITLE3=Noemi Remix
TTITLE4=Love is Just a Game
EXTD=
EXTT0=
EXTT1=
EXTT2=
EXTT3=
EXTT4=
PLAYORDER=
